# xmcd
#
# Track frame offsets:
#	150
#	25891
#	49874
#	65812
#	88920
#	122335
#	144265
#	159181
#	178804
#	200000
#	214806
#	232573
#	250006
#	267600
#
# Disc length: 3795 seconds
#
# Revision: 1
# Processed by: cddbd v1.5.2PL0 Copyright (c) Steve Scherf et al.
# Submitted via: audiograbber 1.83.01
#
DISCID=c30ed10e
DTITLE=Steve Gornall - Electric Bible of the Blues
DYEAR=1900
DGENRE=Blues
TTITLE0=Please Listen to my Pleas
TTITLE1=Bad Whiskey
TTITLE2=Hook, Line and Sinker
TTITLE3=Lovers' Blues
TTITLE4=Peaches and Cream
TTITLE5=One More Bad Habit
TTITLE6=Turnpikin'
TTITLE7=It's Too Late
TTITLE8=Some Kinda Lover
TTITLE9=Black Ice
TTITLE10=Derek James
TTITLE11=Denied
TTITLE12=Timor Mortis
TTITLE13=Slight Return
EXTD=
EXTT0=
EXTT1=
EXTT2=
EXTT3=
EXTT4=
EXTT5=
EXTT6=
EXTT7=
EXTT8=
EXTT9=
EXTT10=
EXTT11=
EXTT12=
EXTT13=
PLAYORDER=
